Coordinates
version=1
nRows=19
nColumns=36
inDegrees=yes

Units are S.I. units (second, meters, Newtons, ...)
If the header above contains a line with 'inDegrees', this indicates whether rotational values are in degrees (yes) or radians (no).

endheader
time	pelvis_tilt	pelvis_list	pelvis_rotation	pelvis_tx	pelvis_ty	pelvis_tz	hip_flexion_r	hip_adduction_r	hip_rotation_r	knee_angle_r	knee_angle_r_beta	ankle_angle_r	subtalar_angle_r	mtp_angle_r	hip_flexion_l	hip_adduction_l	hip_rotation_l	knee_angle_l	knee_angle_l_beta	ankle_angle_l	subtalar_angle_l	mtp_angle_l	lumbar_extension	lumbar_bending	lumbar_rotation	arm_flex_r	arm_add_r	arm_rot_r	elbow_flex_r	pro_sup_r	arm_flex_l	arm_add_l	arm_rot_l	elbow_flex_l	pro_sup_l
     17.20000000	      1.65978549	     -7.07055393	      1.09114776	      0.36180797	      0.94333246	     -0.11749668	     30.93167942	     -1.28821073	     -2.39011408	     82.17613740	      1.43424416	      1.60883524	     -2.27677709	     -7.49999987	     -1.95189749	     -1.70059691	      5.70311099	      7.77317740	      0.13566754	      5.97759196	      0.97164894	     -7.49999987	     -5.19936348	      0.71344693	      0.60830021	     43.06356273	      9.96801997	     66.00053683	    131.04084763	     93.61493468	     37.81353064	     11.13094119	     73.43879298	    127.11231709	     65.03198069
     17.21666670	      1.79002603	     -7.10040564	      0.99297510	      0.36629232	      0.94452849	     -0.12089896	     29.85317651	     -1.22069864	     -2.34056206	     81.80279750	      1.42772815	      1.73889871	     -2.08809281	     -7.49999987	     -2.42120744	     -1.66531860	      5.80647949	      7.45672911	      0.13014447	      5.78270050	      0.50373042	     -7.49999987	     -5.33210819	      0.88671514	      0.49252017	     42.93405602	      9.90385596	     66.30658469	    131.31570599	     93.77639886	     37.36453360	     10.89597563	     72.80487743	    127.21915454	     65.33146169
     17.23333330	      1.88231444	     -7.10479039	      0.66859096	      0.36093022	      0.94582997	     -0.11676557	     29.46975045	     -0.82249536	     -2.11001764	     81.72854627	      1.42643223	      2.17234102	     -2.74173680	     -7.49999987	     -2.52526369	     -1.69986854	      5.61134331	      7.45297459	      0.13007895	      5.48215221	     -0.52949653	     -7.49999987	     -5.79551086	      0.87958296	      0.47787516	     43.16773904	     10.04065798	     66.71248848	    131.40256008	     94.03536916	     37.30061652	     10.30923647	     72.11755523	    127.52403862	     66.25206733
     17.25000000	      1.83889811	     -6.88147417	      0.52378201	      0.36137506	      0.94392402	     -0.11704930	     29.55947984	     -0.55562971	     -1.68134155	     82.08051053	      1.43257516	      2.57234610	     -3.63602178	     -7.49999987	     -2.40017361	     -1.48029841	      5.73286161	      7.43240044	      0.12971986	      4.97622800	     -1.23857846	     -7.49999987	     -6.05506439	      0.67426699	      0.49175732	     43.49260581	     10.06473610	     67.03470311	    131.44959276	     94.34410953	     37.20266072	      9.84095236	     71.37348216	    127.85481903	     69.06831236
     17.26666670	      1.82516789	     -6.72552686	      0.47058542	      0.36157541	      0.94363938	     -0.11687479	     29.51488603	     -0.20296524	     -1.20955065	     82.12902482	      1.43342189	      2.63903915	     -4.09750262	     -7.49999987	     -1.94641542	     -1.31882410	      5.47357644	      8.02215814	      0.14001307	      4.72091144	     -1.64711088	     -7.49999987	     -6.34515161	      0.45402398	      0.57970687	     43.82910581	     10.04621036	     67.44222378	    131.42009925	     90.72344486	     37.24212331	      9.53117503	     70.79539611	    128.21763425	     68.28409477
     17.28333330	      1.82448156	     -6.63004990	      0.51354035	      0.36159458	      0.94350571	     -0.11697235	     29.50299488	      0.00667414	     -0.93419778	     82.35908983	      1.43743729	      2.86387391	     -4.68721545	     -7.49999987	     -1.80812549	     -1.16174705	      5.47868076	      8.21181246	      0.14332316	      4.54320217	     -1.72326583	     -7.49999987	     -6.48819654	      0.31433680	      0.61723451	     44.09805835	     10.01768050	     67.35912344	    131.47279349	     89.56915685	     37.29143019	      9.32772762	     69.95022129	    128.54291611	     67.91844429
     17.30000000	      2.00765933	     -6.65378742	      0.92971145	      0.36115889	      0.94101972	     -0.11702172	     29.31058667	      0.21178795	     -1.02918471	     82.38066979	      1.43781393	      2.73780328	     -5.12964140	     -7.49999987	     -1.83359799	     -1.15486796	      5.74813877	      8.35122489	      0.14575637	      4.53662283	     -1.71040215	     -7.49999987	     -6.87683072	      0.33583809	      0.45374161	     44.67945961	     10.01363778	     67.26570903	    131.24098943	     88.73288472	     37.48261885	      9.35591899	     69.43168500	    128.77597503	     68.09113031
     17.31666670	      1.90155050	     -6.56304972	      1.33624524	      0.36591945	      0.94208615	     -0.12090270	     28.99045451	      0.24845623	     -0.96706908	     82.07777830	      1.43252747	      3.51781147	     -5.09559864	     -7.49999987	     -1.62320750	     -0.94457522	      6.02564959	      8.63431126	      0.15069716	      4.70598703	     -1.38079685	     -7.49999987	     -6.65346774	      0.29913394	      0.20017857	     44.60719701	      9.98794655	     66.79148657	    131.17925637	     94.61742141	     37.13392452	      9.47500149	     68.68122235	    128.83792853	     72.04680567
     17.33333330	      1.90127036	     -6.54297053	      1.40210605	      0.37165744	      0.94248265	     -0.11891719	     28.32584678	      0.53215929	     -1.04986328	     81.60900623	      1.42434586	      3.44145864	     -5.46379533	     -7.49999987	     -1.91242713	     -0.91348575	      6.08159267	      8.36305045	      0.14596277	      4.50719559	     -0.89899410	     -7.49999987	     -6.37928113	      0.20088098	      0.23707847	     44.32606170	      9.94268107	     66.79149045	    131.36508687	     94.64689537	     36.56281725	      9.60337877	     68.46326885	    128.90865760	     72.11289157
     17.35000000	      1.94986192	     -6.54790213	      1.61624894	      0.37160247	      0.94293852	     -0.11911384	     27.55384000	      0.66638685	     -1.09922280	     80.81891122	      1.41055610	      3.97058961	     -5.31030743	     -7.49999987	     -2.20155113	     -0.91423616	      6.17957228	      8.27432854	      0.14441428	      4.62325141	     -0.63977163	     -7.49999987	     -6.19239465	      0.19258393	      0.19690601	     44.03213926	      9.89655798	     66.94824336	    131.54480561	     92.95821823	     36.16701276	      9.71052598	     68.38037841	    129.03775618	     71.26201110
     17.36666670	      1.95252703	     -6.41123816	      1.82368241	      0.37160964	      0.94281342	     -0.11896815	     27.45387242	      0.79248511	     -1.04605751	     80.69571647	      1.40840594	      3.81203740	     -5.71347437	     -7.49999987	     -2.37772266	     -0.76630230	      6.27748120	      8.17079692	      0.14260731	      4.72441638	     -0.37213260	     -7.49999987	     -5.98545219	     -0.04977968	      0.07764631	     43.73783727	      9.93208927	     67.02309298	    131.77832822	     91.98725635	     35.80209508	      9.80121173	     68.26132023	    129.15200945	     70.77668999
     17.38333330	      1.97290573	     -6.37100053	      1.94026436	      0.37168430	      0.94315890	     -0.11904809	     27.15243775	      0.99613296	     -0.91776761	     79.89755917	      1.39447547	      5.10310580	     -6.05342332	     -7.49999987	     -2.58131742	     -0.75210382	      6.20201517	      8.07455478	      0.14092757	      4.88951005	     -0.37466643	     -7.49999987	     -5.89277805	     -0.11805001	      0.04364362	     43.66147308	      9.89360045	     66.97532873	    131.87432688	     95.11295523	     35.63670460	      9.92007811	     67.97958340	    128.86685640	     73.82262101
     17.40000000	      1.90566869	     -6.27087687	      1.97812018	      0.37638715	      0.94369688	     -0.12182243	     26.94146059	      1.08274823	     -0.57725794	     78.89631681	      1.37700050	      6.06229618	     -6.13541795	     -7.49999987	     -2.82304474	     -0.62619079	      6.39694742	      7.92481352	      0.13831409	      4.99477531	     -0.32682055	     -7.49999987	     -5.58750234	     -0.22279616	     -0.06036957	     43.47547788	      9.89091843	     67.10127415	    131.97915354	     95.12302727	     35.38702350	      9.87190772	     67.89646357	    128.81354758	     73.82601630
     17.41666670	      1.87620204	     -6.13566603	      2.24501599	      0.37661910	      0.94358004	     -0.12234457	     26.83874746	      1.04663442	     -0.39328372	     77.82382324	      1.35828195	      7.51068301	     -5.47338939	     -7.49999987	     -2.80006155	     -0.44645810	      6.38545099	      8.15335348	      0.14230286	      5.29148387	     -0.45901300	     -7.49999987	     -5.50467147	     -0.22145317	     -0.26608900	     43.29350510	      9.85580262	     67.45175094	    132.27675423	     93.95966060	     34.80252705	      9.99655360	     67.70697228	    128.76233875	     73.20333992
     17.43333330	      2.15681977	     -6.10330692	      2.34089955	      0.37682761	      0.94630335	     -0.12238394	     26.71945748	      1.04020796	     -0.44597288	     76.41840252	      1.33375273	      7.68396395	     -5.84780343	     -7.49999987	     -3.39235088	     -0.40025635	      6.53564465	      7.87100263	      0.13737491	      5.13599471	     -0.70249755	     -7.49999987	     -5.74472920	     -0.14615625	     -0.48929803	     43.27756637	      9.94402751	     67.91077909	    132.20137430	     93.08251586	     34.59022061	     10.05994357	     67.71630222	    128.55849703	     72.66710740
     17.45000000	      2.28334810	     -5.99525495	      2.50559670	      0.37672929	      0.94650984	     -0.12273744	     27.27691679	      0.85874267	     -0.74291457	     75.31300278	      1.31445987	      6.49077803	     -7.17681133	     -7.49999987	     -3.34784039	     -0.26965493	      6.46712317	      8.36271769	      0.14595696	      5.01180711	     -0.93508831	     -7.49999987	     -5.93541995	     -0.16138735	     -0.79344187	     43.13011495	     10.00952779	     68.20610897	    132.24486635	     93.39827540	     34.50980101	     10.01173831	     67.47832320	    128.23892002	     72.99323755
     17.46666670	      2.43075183	     -5.88375673	      2.55316174	      0.37641666	      0.94613302	     -0.12240528	     27.70299953	      0.87422922	     -0.71571543	     73.82724228	      1.28852846	      4.79236511	     -8.65935788	     -7.49999987	     -3.38106322	     -0.14177128	      6.37231444	      8.62473579	      0.15053004	      4.72551830	     -1.14535126	     -7.49999987	     -6.15854717	     -0.16363348	     -0.93250842	     43.01951622	     10.08339728	     68.33089289	    132.14555316	     95.62166624	     34.31097438	     10.00493941	     67.23642783	    128.07574928	     75.89902519
     17.48333330	      2.42765432	     -5.53977961	      2.62500629	      0.37589398	      0.94354233	     -0.12240436	     27.96836011	      0.65121241	     -0.84959466	     71.49885990	      1.24789052	      3.93477800	    -11.23773083	     -7.49999987	     -3.06922442	      0.19831538	      6.06719281	      9.26313190	      0.16167215	      4.56912732	     -1.57486476	     -7.49999987	     -6.23392758	     -0.52083308	     -1.02374736	     42.96969335	     10.21849727	     68.65795924	    132.11150721	     95.43481352	     34.45615136	      9.93982768	     67.12827349	    127.89821283	     75.82198852
     17.50000000	      2.34709755	     -5.09450847	      2.96161201	      0.37127055	      0.94276838	     -0.12460581	     27.89041091	      0.21335604	     -0.70657207	     68.68680729	      1.19881094	      3.57536227	    -13.68962690	     -7.49999987	     -2.28927005	      0.66562257	      5.93812917	     10.37852892	      0.18113950	      4.42629601	     -2.12639293	     -7.49999987	     -6.30324850	     -0.87998538	     -1.25509889	     43.03606275	     10.32797008	     68.80513171	    131.91874798	     95.46413682	     34.64211476	      9.94228330	     67.08084268	    127.78806191	     75.86608717
